<svg width="28" height="28" viewBox="0 0 28 28" fill="none" xmlns="http://www.w3.org/2000/svg">
<g filter="url(#filter0_d_1_4904)">
<rect x="4.5" y="0.5" width="19" height="19" stroke="black" shape-rendering="crispEdges"/>
</g>
<path d="M20 7H18V5H20V7ZM20 11H18V9H20V11ZM20 15H18V13H20V15ZM10 7H8V5H10V7ZM10 11H8V9H10V11ZM10 15H8V13H10V15ZM20 1V3H18V1H10V3H8V1H6V19H8V17H10V19H18V17H20V19H22V1H20Z" fill="#9696A0"/>
<defs>
<filter id="filter0_d_1_4904" x="0" y="0" width="28" height="28" filterUnits="userSpaceOnUse" color-interpolation-filters="sRGB">
<feFlood flood-opacity="0" result="BackgroundImageFix"/>
<feColorMatrix in="SourceAlpha" type="matrix" values="0 0 0 0 0 0 0 0 0 0 0 0 0 0 0 0 0 0 127 0" result="hardAlpha"/>
<feOffset dy="4"/>
<feGaussianBlur stdDeviation="2"/>
<feComposite in2="hardAlpha" operator="out"/>
<feColorMatrix type="matrix" values="0 0 0 0 0 0 0 0 0 0 0 0 0 0 0 0 0 0 0.25 0"/>
<feBlend mode="normal" in2="BackgroundImageFix" result="effect1_dropShadow_1_4904"/>
<feBlend mode="normal" in="SourceGraphic" in2="effect1_dropShadow_1_4904" result="shape"/>
</filter>
</defs>
</svg>
